<svg width="102" height="25" viewBox="0 0 102 25" fill="none" xmlns="http://www.w3.org/2000/svg">
<path d="M18.7929 14.4964C18.7585 11.9139 17.8309 9.71019 16.01 7.88522C14.3953 6.26686 12.4713 5.33716 10.2725 5.13056V5.09613H9.58541C9.5167 5.09613 9.48234 5.09613 9.41363 5.09613H8.96699L8.69215 5.13056V5.16499C6.63077 5.30273 4.84424 6.06026 3.29821 7.40316V1.5495C3.22949 0.688666 2.50801 0 1.6491 0C0.75584 0 0.0687126 0.688666 0 1.5495C0 1.58393 0 1.61837 0 1.68723V14.4964V14.5308V22.0717C0.0343563 22.967 0.75584 23.6901 1.6491 23.6901C2.54237 23.6901 3.29821 22.967 3.29821 22.0717V21.4175C4.94731 23.1047 6.97433 24 9.34492 24C11.9216 24 14.1204 23.0703 15.9413 21.2453C17.7966 19.4204 18.7242 17.1822 18.7242 14.5653L18.7929 14.4964ZM13.7082 18.9039C12.5057 20.109 11.0971 20.66 9.41363 20.66C7.73017 20.66 6.35592 20.0746 5.15345 18.9039C3.95097 17.6987 3.36692 16.2869 3.36692 14.5653V14.4964C3.40127 12.8092 3.98533 11.3974 5.15345 10.2267C6.35592 9.02152 7.76452 8.43616 9.44798 8.43616L9.75719 8.47059C11.3032 8.53945 12.6088 9.12482 13.7425 10.2611C14.945 11.4319 15.4947 12.8092 15.529 14.5308V14.5997C15.4947 16.2869 14.9106 17.6987 13.7082 18.9039Z" fill="#272B44"/>
<path d="M36.4864 7.64407C34.6655 5.8191 32.5011 4.8894 29.9587 4.8894C27.382 4.8894 25.1488 5.8191 23.3279 7.64407C21.507 9.46903 20.6138 11.7072 20.6138 14.2897C20.6138 16.8722 21.5414 19.1104 23.3279 20.9698C25.1488 22.7947 27.382 23.7244 29.9587 23.7244C31.5391 23.7244 33.0164 23.3456 34.3563 22.5881C34.9747 22.2438 35.5588 21.8306 36.0741 21.3829C36.5207 21.0042 36.7612 20.5566 36.7612 20.0401C36.7612 19.1104 36.0054 18.3873 35.1121 18.3873C34.6655 18.3873 34.2189 18.5939 33.9097 18.9038C32.8446 19.9023 31.4704 20.3844 29.9587 20.3844C28.2752 20.3844 26.901 19.799 25.6985 18.6283C24.9083 17.8363 24.393 16.9755 24.1525 15.9425H37.6201C38.5478 15.9425 39.3036 15.185 39.3036 14.2897C39.2349 11.7072 38.3073 9.46903 36.4864 7.64407ZM29.9587 8.22943C31.4704 8.22943 32.7759 8.74593 33.9097 9.7445C34.8373 10.5709 35.4557 11.535 35.7649 12.7058H24.1868C24.4617 11.7072 24.977 10.8119 25.7329 10.0544C26.901 8.78036 28.2752 8.22943 29.9587 8.22943Z" fill="#272B44"/>
<path d="M43.1515 0C42.2239 0 41.5024 0.757532 41.5024 1.6528V22.0029C41.5024 22.9326 42.2583 23.6557 43.1515 23.6557C44.0792 23.6557 44.8007 22.8981 44.8007 22.0029V1.6528C44.835 0.723099 44.0792 0 43.1515 0Z" fill="#272B44"/>
<path d="M49.8854 5.40601C48.9578 5.40601 48.2363 6.16354 48.2363 7.0588V22.0029C48.2363 22.9326 48.9922 23.6556 49.8854 23.6556C50.8131 23.6556 51.5345 22.8981 51.5345 22.0029V7.0588C51.5345 6.16354 50.8131 5.40601 49.8854 5.40601Z" fill="#272B44"/>
<path d="M56.5849 5.40601C55.6573 5.40601 54.9358 6.16354 54.9358 7.0588V22.0029C54.9358 22.9326 55.6916 23.6556 56.5849 23.6556C57.5125 23.6556 58.234 22.8981 58.234 22.0029V7.0588C58.2684 6.16354 57.5125 5.40601 56.5849 5.40601Z" fill="#272B44"/>
<path d="M76.1678 5.40601C75.4807 5.40601 74.8967 5.81921 74.6562 6.40457L69.2279 18.3185L63.7996 6.40457C63.5247 5.81921 62.9407 5.40601 62.2879 5.40601C61.3603 5.40601 60.6388 6.16354 60.6388 7.0588C60.6388 7.3687 60.7075 7.60974 60.8449 7.85077L67.7506 22.7948L67.7849 22.8637C68.1285 23.4146 68.6438 23.7245 69.2622 23.7245C69.8463 23.7245 70.396 23.3802 70.7395 22.8637L70.7739 22.7948L77.6795 7.85077C77.7826 7.60974 77.8857 7.33427 77.8857 7.0588C77.8169 6.16354 77.0955 5.40601 76.1678 5.40601Z" fill="#272B44"/>
<path d="M94.2737 7.85085C92.4529 6.02589 90.2884 5.09619 87.746 5.09619C85.1693 5.09619 82.9362 6.02589 81.1153 7.85085C79.2944 9.67582 78.4011 11.914 78.4011 14.4965C78.4011 17.079 79.3288 19.3171 81.1153 21.1765C82.9362 23.0015 85.1693 23.9312 87.746 23.9312C89.3264 23.9312 90.8038 23.5524 92.1436 22.7949C92.7621 22.4506 93.3461 22.0374 93.8615 21.5897C94.3081 21.211 94.5486 20.7633 94.5486 20.2468C94.5486 19.3171 93.7928 18.594 92.8995 18.594C92.4529 18.594 92.0062 18.8006 91.697 19.1105C90.632 20.1091 89.2577 20.5912 87.746 20.5912C86.0626 20.5912 84.6883 20.0058 83.4859 18.8351C82.6957 18.0431 82.1803 17.1823 81.9398 16.1493H95.4075C96.3351 16.1493 97.091 15.3917 97.091 14.4965C97.0223 11.914 96.0946 9.67582 94.2737 7.85085ZM87.746 8.43622C89.2577 8.43622 90.5633 8.95272 91.697 9.95129C92.6246 10.7777 93.2431 11.7418 93.5523 12.9125H81.9742C82.249 11.914 82.7644 11.0187 83.5202 10.2612C84.6883 8.98715 86.0969 8.43622 87.746 8.43622Z" fill="#272B44"/>
<path d="M49.8853 4.09751C50.9847 4.09751 51.8436 3.20225 51.8436 2.13482C51.8436 1.06738 50.9504 0.172119 49.8853 0.172119C48.7859 0.172119 47.927 1.06738 47.927 2.13482C47.927 3.20225 48.7859 4.09751 49.8853 4.09751Z" fill="#00B7D2"/>
<path d="M56.5849 4.09751C57.6843 4.09751 58.5432 3.20225 58.5432 2.13482C58.5432 1.06738 57.6499 0.172119 56.5849 0.172119C55.4855 0.172119 54.6266 1.06738 54.6266 2.13482C54.6266 3.20225 55.4855 4.09751 56.5849 4.09751Z" fill="#00B7D2"/>
</svg>
