<svg width="102" height="25" viewBox="0 0 102 25" fill="none" xmlns="http://www.w3.org/2000/svg">
<path d="M19.5627 15.0942C19.5448 12.419 18.5756 10.1052 16.6732 8.20721C14.9861 6.52612 12.994 5.58615 10.6967 5.36924V5.35116L9.96084 5.33309C9.907 5.33309 9.85316 5.33309 9.79931 5.33309H9.33268L9.06347 5.35116V5.36924C6.92772 5.51385 5.06118 6.29113 3.44591 7.70107V1.62746C3.37412 0.72365 2.63828 0.0186768 1.72296 0.0186768C0.807636 0.0186768 0.0717899 0.72365 0 1.62746C0 1.66361 0 1.69977 0 1.75399V15.0942V15.1304V22.9936C0.0179475 23.9335 0.789688 24.6927 1.72296 24.6927C2.65622 24.6927 3.42797 23.9335 3.44591 22.9936V22.3247C5.15092 24.0962 7.26872 25 9.76342 25C12.4376 25 14.7528 24.042 16.6552 22.144C18.5756 20.246 19.5448 17.8961 19.5448 15.1846L19.5627 15.0942ZM14.2503 19.6856C12.994 20.9329 11.5223 21.5294 9.76342 21.5294C8.02252 21.5294 6.56877 20.9329 5.31245 19.6856C4.05613 18.4203 3.44591 16.9561 3.44591 15.1666V15.1123C3.46386 13.3589 4.07407 11.8948 5.2945 10.6837C6.53288 9.43639 8.00457 8.8218 9.76342 8.80372L10.0865 8.8218C11.7017 8.8941 13.0658 9.5087 14.2503 10.6837C15.4887 11.8948 16.0809 13.3409 16.0989 15.1123V15.1666C16.1168 16.9561 15.5066 18.4203 14.2503 19.6856Z" fill="#272B44"/>
<path d="M38.0339 7.97006C36.1494 6.07205 33.8701 5.11401 31.2139 5.11401C28.5397 5.11401 26.2065 6.09013 24.3041 7.98813C22.4196 9.88614 21.4684 12.218 21.4684 14.9113C21.4684 17.6047 22.4196 19.9365 24.3041 21.8707C26.2065 23.7868 28.5217 24.7448 31.2139 24.7448C32.8471 24.7448 34.3906 24.3471 35.8084 23.5518C36.4545 23.1902 37.0647 22.7564 37.6031 22.2864C38.0698 21.9068 38.321 21.4188 38.321 20.8946C38.321 19.9365 37.5493 19.1592 36.5981 19.1592C36.1315 19.1592 35.6828 19.3581 35.3597 19.7015C34.247 20.7319 32.8291 21.2561 31.2318 21.2561C29.4909 21.2561 28.0372 20.6596 26.7808 19.4123C25.9552 18.5808 25.4348 17.677 25.1656 16.6105H39.2184C40.1696 16.6105 40.9593 15.8332 40.9593 14.8752C40.8875 12.1999 39.9184 9.86806 38.0339 7.97006ZM31.2139 8.56657C32.7753 8.56657 34.1572 9.09078 35.3238 10.1392C36.293 11.0069 36.9211 12.0011 37.2442 13.2122H25.1476C25.4168 12.1818 25.9732 11.2419 26.7629 10.4465C28.0192 9.16309 29.4729 8.56657 31.2139 8.56657Z" fill="#272B44"/>
<path d="M45.0069 0C44.0557 0 43.2839 0.777278 43.2839 1.73532V22.9387C43.2839 23.8968 44.0557 24.674 45.0069 24.674C45.9581 24.674 46.7298 23.8968 46.7298 22.9387V1.73532C46.7298 0.777278 45.9581 0 45.0069 0Z" fill="#272B44"/>
<path d="M52.0062 5.63977C51.0549 5.63977 50.2832 6.41705 50.2832 7.37509V22.9387C50.2832 23.8968 51.0549 24.674 52.0062 24.674C52.9574 24.674 53.7291 23.8968 53.7291 22.9387V7.37509C53.7471 6.41705 52.9753 5.63977 52.0062 5.63977Z" fill="#272B44"/>
<path d="M59.0239 5.63977C58.0726 5.63977 57.3009 6.41705 57.3009 7.37509V22.9387C57.3009 23.8968 58.0726 24.674 59.0239 24.674C59.9751 24.674 60.7468 23.8968 60.7468 22.9387V7.37509C60.7468 6.41705 59.9751 5.63977 59.0239 5.63977Z" fill="#272B44"/>
<path d="M79.4479 5.63977C78.7479 5.63977 78.1377 6.0736 77.8685 6.67012L72.2151 19.0885L66.5616 6.67012C66.2924 6.05552 65.6822 5.63977 64.9822 5.63977C64.031 5.63977 63.2593 6.41705 63.2593 7.37509C63.2593 7.68238 63.3311 7.95353 63.4746 8.20659L70.6716 23.7522L70.7075 23.8064C71.0485 24.3667 71.6048 24.7102 72.233 24.7102C72.8432 24.7102 73.4175 24.3667 73.7585 23.8064L73.7944 23.7522L80.9914 8.20659C81.117 7.95353 81.2067 7.68238 81.2067 7.37509C81.1708 6.41705 80.3991 5.63977 79.4479 5.63977Z" fill="#272B44"/>
<path d="M98.3464 8.1885C96.4619 6.2905 94.1826 5.33246 91.5264 5.33246C88.8522 5.33246 86.519 6.30857 84.6166 8.20658C82.7321 10.1046 81.7809 12.4364 81.7809 15.1298C81.7809 17.8231 82.7321 20.155 84.6166 22.0891C86.519 24.0052 88.8342 24.9632 91.5264 24.9632C93.1596 24.9632 94.7031 24.5656 96.1209 23.7702C96.767 23.4087 97.3772 22.9749 97.9156 22.5049C98.3823 22.1253 98.6335 21.6372 98.6335 21.113C98.6335 20.155 97.8618 19.3777 96.9106 19.3777C96.444 19.3777 95.9953 19.5765 95.6722 19.92C94.5595 20.9503 93.1416 21.4745 91.5443 21.4745C89.8034 21.4745 88.3497 20.878 87.0933 19.6308C86.2677 18.7993 85.7473 17.8954 85.4781 16.8289H99.5309C100.482 16.8289 101.272 16.0517 101.272 15.0936C101.2 12.4183 100.231 10.0865 98.3464 8.1885ZM91.5264 8.78502C93.0878 8.78502 94.4697 9.30923 95.6363 10.3577C96.6055 11.2253 97.2336 12.2195 97.5567 13.4306H85.4601C85.7293 12.4003 86.2857 11.4603 87.0754 10.6649C88.3317 9.38154 89.7854 8.78502 91.5264 8.78502Z" fill="#272B44"/>
<path d="M52.0065 4.26597C53.1364 4.26597 54.0525 3.34337 54.0525 2.20528C54.0525 1.06719 53.1364 0.144592 52.0065 0.144592C50.8765 0.144592 49.9604 1.06719 49.9604 2.20528C49.9604 3.34337 50.8765 4.26597 52.0065 4.26597Z" fill="url(#paint0_linear)"/>
<path d="M59.0057 4.26597C60.1357 4.26597 61.0517 3.34337 61.0517 2.20528C61.0517 1.06719 60.1357 0.144592 59.0057 0.144592C57.8757 0.144592 56.9597 1.06719 56.9597 2.20528C56.9597 3.34337 57.8757 4.26597 59.0057 4.26597Z" fill="url(#paint1_linear)"/>
<defs>
<linearGradient id="paint0_linear" x1="50.1274" y1="2.99401" x2="53.9108" y2="1.44748" gradientUnits="userSpaceOnUse">
<stop stop-color="#069A92"/>
<stop offset="1" stop-color="#1BB68C"/>
</linearGradient>
<linearGradient id="paint1_linear" x1="57.1266" y1="2.99431" x2="60.91" y2="1.44779" gradientUnits="userSpaceOnUse">
<stop stop-color="#069A92"/>
<stop offset="1" stop-color="#1BB68C"/>
</linearGradient>
</defs>
</svg>